<svg _ngcontent-vdo-c40="" width="71" height="36" viewBox="0 0 71 36" fill="none"
    xmlns="http://www.w3.org/2000/svg">
    <g _ngcontent-vdo-c40="" id="keifi">
        <g _ngcontent-vdo-c40="" id="imagotipo">
            <path _ngcontent-vdo-c40="" id="Rectangle Copy" fill-rule="evenodd" clip-rule="evenodd"
                d="M1.49829 4.47603C3.17033 3.74806 4.71349 5.5282 4.71349 5.5282L16.334 17.1378C16.334 17.1378 17.9261 18.6065 17.2477 20.208C16.5693 21.8095 14.6181 21.693 14.6181 21.693H3.3023C3.3023 21.693 1.5396 21.8264 0.714383 20.9919C-0.110831 20.1575 0.0201507 18.3741 0.0201507 18.3741V7.57572C0.0201507 7.57572 -0.173757 5.20399 1.49829 4.47603Z"
                fill="#69B3E7"></path>
            <path _ngcontent-vdo-c40="" id="Rectangle" fill-rule="evenodd" clip-rule="evenodd"
                d="M3.43725 17.2354C5.1093 17.9633 6.65245 16.1832 6.65245 16.1832L18.273 4.57357C18.273 4.57357 19.865 3.10493 19.1866 1.50341C18.5082 -0.0981147 16.557 0.0183827 16.557 0.0183827H5.24127C5.24127 0.0183827 3.47856 -0.114981 2.65335 0.719464C1.82813 1.55391 1.95912 3.33725 1.95912 3.33725V14.1357C1.95912 14.1357 1.76521 16.5074 3.43725 17.2354Z"
                fill="#2C5697"></path>
        </g>
        <g _ngcontent-vdo-c40="" id="logo-name" fill="#FFFFFF">
            <g _ngcontent-vdo-c40="" id="keifi_2">
                <path _ngcontent-vdo-c40="" id="Path"
                    d="M26.8109 20.3695V16.6902L29.5944 14.102L34.6298 20.3695H37.6157L31.4162 12.4781L37.059 6.92103H34.1237L26.8109 13.6199V1.54163H24.3818V20.3695H26.8109Z"></path>
                <path _ngcontent-vdo-c40="" id="Combined Shape" fill-rule="evenodd"
                    clip-rule="evenodd"
                    d="M47.5268 19.9635C46.6243 20.3357 45.6163 20.5218 44.503 20.5218C43.086 20.5218 41.8292 20.23 40.7327 19.6464C39.6362 19.0627 38.7885 18.2465 38.1897 17.1977C37.5908 16.1489 37.2914 14.9648 37.2914 13.6453C37.2914 12.3427 37.5824 11.167 38.1644 10.1182C38.7464 9.06941 39.5476 8.2532 40.5682 7.66958C41.5888 7.08597 42.7401 6.79416 44.0222 6.79416C45.3043 6.79416 46.4472 7.08597 47.4509 7.66958C48.4546 8.2532 49.239 9.06941 49.8041 10.1182C50.3692 11.167 50.6518 12.3681 50.6518 13.7214C50.6518 13.9075 50.6349 14.1528 50.6012 14.4573H39.7205C39.8724 15.6414 40.3911 16.593 41.2767 17.3119C42.1624 18.0309 43.2631 18.3903 44.5789 18.3903C46.1815 18.3903 47.472 17.849 48.4504 16.7664L49.7915 18.3396C49.1842 19.0501 48.4293 19.5914 47.5268 19.9635ZM39.7205 12.7064H48.3238C48.1889 11.573 47.7292 10.6469 46.9448 9.92791C46.1604 9.20897 45.1862 8.84949 44.0222 8.84949C42.8582 8.84949 41.884 9.20474 41.0996 9.91522C40.3152 10.6257 39.8555 11.5561 39.7205 12.7064Z"></path>
                <path _ngcontent-vdo-c40="" id="Path_2"
                    d="M54.2586 4.33283C54.7309 4.33283 55.1231 4.17635 55.4352 3.8634C55.7473 3.55045 55.9033 3.1656 55.9033 2.70886C55.9033 2.26903 55.7473 1.9011 55.4352 1.60507C55.1231 1.30903 54.7309 1.16101 54.2586 1.16101C53.7862 1.16101 53.394 1.31749 53.082 1.63044C52.7699 1.94339 52.6138 2.31978 52.6138 2.75961C52.6138 3.19943 52.7699 3.57159 53.082 3.87609C53.394 4.18058 53.7862 4.33283 54.2586 4.33283Z"></path>
                <path _ngcontent-vdo-c40="" id="Path_3"
                    d="M55.4732 20.3695V6.92102H53.044V20.3695H55.4732Z"></path>
                <path _ngcontent-vdo-c40="" id="Path_4"
                    d="M61.914 20.3695V8.92561H65.7602V6.92102H61.8634V5.7538C61.8634 4.18057 62.5887 3.39396 64.0395 3.39396C64.7311 3.39396 65.3553 3.60542 65.912 4.02833V4.02833L66.6458 2.17598C66.3084 1.92224 65.9035 1.7277 65.4312 1.59237C64.9589 1.45704 64.4528 1.38937 63.913 1.38937C62.5128 1.38937 61.4248 1.77845 60.6488 2.5566C59.8728 3.33476 59.4848 4.39203 59.4848 5.72842V5.72842V6.92102H57.2075V8.92561H59.4848V20.3695H61.914Z"></path>
                <path _ngcontent-vdo-c40="" id="Path_5"
                    d="M69.3553 4.33283C69.8276 4.33283 70.2198 4.17635 70.5319 3.8634C70.844 3.55045 71 3.1656 71 2.70886C71 2.26903 70.844 1.9011 70.5319 1.60507C70.2198 1.30903 69.8276 1.16101 69.3553 1.16101C68.8829 1.16101 68.4907 1.31749 68.1786 1.63044C67.8666 1.94339 67.7105 2.31978 67.7105 2.75961C67.7105 3.19943 67.8666 3.57159 68.1786 3.87609C68.4907 4.18058 68.8829 4.33283 69.3553 4.33283Z"></path>
                <path _ngcontent-vdo-c40="" id="Path_6"
                    d="M70.5698 20.3695V6.92102H68.1407V20.3695H70.5698Z"></path>
            </g>
        </g>
    </g>
</svg>