<?xml version="1.0" standalone="no"?>
<!DOCTYPE svg PUBLIC "-//W3C//DTD SVG 20010904//EN"
 "http://www.w3.org/TR/2001/REC-SVG-20010904/DTD/svg10.dtd">
<svg version="1.0" xmlns="http://www.w3.org/2000/svg"
 width="512.000000pt" height="512.000000pt" viewBox="0 0 512.000000 512.000000"
 preserveAspectRatio="xMidYMid meet">
<metadata>
Created by potrace 1.14, written by Peter Selinger 2001-2017
</metadata>
<g transform="translate(0.000000,512.000000) scale(0.100000,-0.100000)"
fill="#000000" stroke="none">
<path d="M0 2560 l0 -2560 2560 0 2560 0 0 2560 0 2560 -2560 0 -2560 0 0
-2560z m2100 930 l0 -110 -465 0 -465 0 0 -275 0 -275 445 0 445 0 0 -105 0
-105 -442 -2 -443 -3 0 -335 0 -335 473 -3 472 -2 0 -105 0 -105 -600 0 -600
0 0 928 c0 511 3 932 7 935 3 4 269 7 590 7 l583 0 0 -110z m1050 -526 c129
-344 237 -627 240 -629 3 -2 112 279 242 623 l236 627 186 3 186 2 0 -930 0
-930 -120 0 -120 0 -2 815 -3 815 -119 -317 c-65 -175 -173 -461 -239 -635
l-120 -318 -126 0 -126 0 -229 613 c-126 336 -235 623 -242 637 -11 21 -13
-119 -14 -792 l0 -818 -120 0 -120 0 0 930 0 930 188 0 187 0 235 -626z"/>
</g>
</svg>
