<?xml version="1.0" standalone="no"?>
<!DOCTYPE svg PUBLIC "-//W3C//DTD SVG 20010904//EN"
 "http://www.w3.org/TR/2001/REC-SVG-20010904/DTD/svg10.dtd">
<svg version="1.0" xmlns="http://www.w3.org/2000/svg"
 width="1024.000000pt" height="1024.000000pt" viewBox="0 0 1024.000000 1024.000000"
 preserveAspectRatio="xMidYMid meet">
<metadata>
Created by potrace 1.14, written by Peter Selinger 2001-2017
</metadata>
<g transform="translate(0.000000,1024.000000) scale(0.100000,-0.100000)"
fill="#000000" stroke="none">
<path d="M0 5120 l0 -5120 5120 0 5120 0 0 5120 0 5120 -5120 0 -5120 0 0
-5120z m3754 1560 c49 -18 61 -53 61 -181 0 -104 -2 -121 -21 -146 l-21 -28
-677 -3 -676 -2 0 -530 0 -530 563 0 c429 0 568 -3 587 -13 47 -23 61 -70 58
-187 -2 -81 -7 -112 -21 -133 l-17 -27 -585 0 -585 0 0 -605 0 -605 663 -1
c364 -1 673 -4 686 -8 13 -3 34 -19 45 -34 19 -25 21 -42 21 -147 0 -105 -2
-122 -21 -147 l-21 -28 -854 -3 -853 -2 -36 24 c-20 13 -45 41 -56 63 -18 37
-19 86 -22 1548 -3 1544 -2 1606 35 1662 17 26 61 52 108 64 46 11 1609 11
1639 -1z m1342 0 c166 -17 254 -80 317 -225 20 -44 248 -620 507 -1280 260
-660 474 -1202 476 -1204 2 -2 7 -2 10 2 3 3 234 563 513 1244 279 681 518
1257 530 1281 79 153 198 199 495 190 165 -5 219 -23 258 -86 l23 -37 3 -1610
2 -1611 -32 -19 c-29 -18 -51 -20 -188 -20 -178 0 -213 10 -224 66 -3 17 -6
687 -6 1488 l-1 1456 -584 -1460 c-321 -803 -592 -1474 -601 -1492 -25 -49
-60 -58 -219 -58 -114 0 -146 3 -172 17 -37 21 35 -159 -664 1662 l-514 1339
-3 -1489 -2 -1490 -33 -19 c-28 -18 -51 -20 -187 -20 -188 0 -215 9 -225 77
-3 24 -5 743 -3 1598 l3 1555 23 47 c26 51 66 82 128 97 53 12 258 13 370 1z"/>
</g>
</svg>
