<svg xmlns="http://www.w3.org/2000/svg" xmlns:xlink="http://www.w3.org/1999/xlink" style="margin:auto;background:rgba(NaN, NaN, NaN, 0);display:block;z-index:1;position:relative" width="1920" height="933" preserveAspectRatio="xMidYMid" viewBox="0 0 1920 933">
<g transform="translate(960,466.5) scale(1,1) translate(-960,-466.5)"><linearGradient id="lg-0.5994360046081404" x1="0" x2="1" y1="0" y2="0">
  <stop stop-color="#f9b60a" offset="0"></stop>
  <stop stop-color="#ecad0b" offset="1"></stop>
</linearGradient><path d="M 1633 467 C 1633 641 1255 813 1090 867 C 925 921 633 919 531 778 C 429 637 400 275 502 134 C 604 -7 938 -27 1103 27 C 1268 81 1633 293 1633 467" fill="url(#lg-0.5994360046081404)" opacity="0.4">
  <animate attributeName="d" dur="10s" repeatCount="indefinite" keyTimes="0;0.3333333333333333;0.6666666666666666;1" calcmod="spline" keySplines="0.3 0.1 0.7 0.9;0.3 0.1 0.7 0.9;0.3 0.1 0.7 0.9" begin="-4s" values="M 1633 467 C 1633 641 1255 813 1090 867 C 925 921 633 919 531 778 C 429 637 400 275 502 134 C 604 -7 938 -27 1103 27 C 1268 81 1633 293 1633 467;M 1684 467 C 1684 650 1285 873 1111 930 C 937 987 598 956 490 808 C 382 660 418 299 526 151 C 634 3 931 -36 1105 21 C 1279 78 1684 284 1684 467;M 1622 467 C 1622 638 1280 895 1117 948 C 954 1001 570 960 470 822 C 370 684 461 315 561 177 C 661 39 940 -26 1103 27 C 1266 80 1622 296 1622 467;M 1633 467 C 1633 641 1255 813 1090 867 C 925 921 633 919 531 778 C 429 637 400 275 502 134 C 604 -7 938 -27 1103 27 C 1268 81 1633 293 1633 467"></animate>
</path><path d="M 1629 467 C 1629 639 1244 785 1081 838 C 918 891 592 946 491 807 C 390 668 389 264 490 125 C 591 -14 922 30 1085 83 C 1248 136 1629 295 1629 467" fill="url(#lg-0.5994360046081404)" opacity="0.4">
  <animate attributeName="d" dur="10s" repeatCount="indefinite" keyTimes="0;0.3333333333333333;0.6666666666666666;1" calcmod="spline" keySplines="0.3 0.1 0.7 0.9;0.3 0.1 0.7 0.9;0.3 0.1 0.7 0.9" begin="-4s" values="M 1629 467 C 1629 639 1244 785 1081 838 C 918 891 592 946 491 807 C 390 668 389 264 490 125 C 591 -14 922 30 1085 83 C 1248 136 1629 295 1629 467;M 1460 467 C 1460 620 1210 742 1065 789 C 920 836 653 879 563 755 C 473 631 465 296 555 172 C 645 48 958 -22 1103 25 C 1248 72 1460 314 1460 467;M 1630 467 C 1630 637 1254 825 1093 877 C 932 929 602 936 502 799 C 402 662 469 319 569 182 C 669 45 928 18 1089 70 C 1250 122 1630 297 1630 467;M 1629 467 C 1629 639 1244 785 1081 838 C 918 891 592 946 491 807 C 390 668 389 264 490 125 C 591 -14 922 30 1085 83 C 1248 136 1629 295 1629 467"></animate>
</path><path d="M 1669 467 C 1669 648 1297 918 1125 974 C 953 1030 607 948 500 801 C 393 654 366 260 473 113 C 580 -34 945 -71 1117 -15 C 1289 41 1669 286 1669 467" fill="url(#lg-0.5994360046081404)" opacity="0.4">
  <animate attributeName="d" dur="10s" repeatCount="indefinite" keyTimes="0;0.3333333333333333;0.6666666666666666;1" calcmod="spline" keySplines="0.3 0.1 0.7 0.9;0.3 0.1 0.7 0.9;0.3 0.1 0.7 0.9" begin="-4s" values="M 1669 467 C 1669 648 1297 918 1125 974 C 953 1030 607 948 500 801 C 393 654 366 260 473 113 C 580 -34 945 -71 1117 -15 C 1289 41 1669 286 1669 467;M 1484 467 C 1484 627 1262 880 1110 929 C 958 978 649 890 555 761 C 461 632 464 305 558 175 C 652 45 925 57 1077 107 C 1229 157 1484 307 1484 467;M 1556 467 C 1556 632 1268 879 1111 930 C 954 981 673 879 576 746 C 479 613 453 301 550 168 C 647 35 944 -19 1101 32 C 1258 83 1556 302 1556 467;M 1669 467 C 1669 648 1297 918 1125 974 C 953 1030 607 948 500 801 C 393 654 366 260 473 113 C 580 -34 945 -71 1117 -15 C 1289 41 1669 286 1669 467"></animate>
</path><path d="M 1557 467 C 1557 634 1231 761 1072 812 C 913 863 668 885 570 750 C 472 615 418 279 516 144 C 614 9 956 -62 1115 -11 C 1274 40 1557 300 1557 467" fill="url(#lg-0.5994360046081404)" opacity="0.4">
  <animate attributeName="d" dur="10s" repeatCount="indefinite" keyTimes="0;0.3333333333333333;0.6666666666666666;1" calcmod="spline" keySplines="0.3 0.1 0.7 0.9;0.3 0.1 0.7 0.9;0.3 0.1 0.7 0.9" begin="-4s" values="M 1557 467 C 1557 634 1231 761 1072 812 C 913 863 668 885 570 750 C 472 615 418 279 516 144 C 614 9 956 -62 1115 -11 C 1274 40 1557 300 1557 467;M 1636 467 C 1636 651 1299 913 1124 970 C 949 1027 550 992 442 843 C 334 694 325 232 433 83 C 541 -66 933 -47 1108 10 C 1283 67 1636 283 1636 467;M 1635 467 C 1635 639 1276 884 1113 937 C 950 990 546 980 445 841 C 344 702 408 278 509 139 C 610 0 914 54 1077 107 C 1240 160 1635 295 1635 467;M 1557 467 C 1557 634 1231 761 1072 812 C 913 863 668 885 570 750 C 472 615 418 279 516 144 C 614 9 956 -62 1115 -11 C 1274 40 1557 300 1557 467"></animate>
</path><path d="M 1560 467 C 1560 647 1282 874 1111 930 C 940 986 613 942 507 796 C 401 650 414 293 520 147 C 626 1 923 -2 1094 54 C 1265 110 1560 287 1560 467" fill="url(#lg-0.5994360046081404)" opacity="0.4">
  <animate attributeName="d" dur="10s" repeatCount="indefinite" keyTimes="0;0.3333333333333333;0.6666666666666666;1" calcmod="spline" keySplines="0.3 0.1 0.7 0.9;0.3 0.1 0.7 0.9;0.3 0.1 0.7 0.9" begin="-4s" values="M 1560 467 C 1560 647 1282 874 1111 930 C 940 986 613 942 507 796 C 401 650 414 293 520 147 C 626 1 923 -2 1094 54 C 1265 110 1560 287 1560 467;M 1612 467 C 1612 632 1263 865 1106 916 C 949 967 652 894 555 761 C 458 628 406 269 503 135 C 600 1 945 -22 1102 29 C 1259 80 1612 302 1612 467;M 1636 467 C 1636 649 1284 873 1111 930 C 938 987 592 960 485 812 C 378 664 352 250 459 102 C 566 -46 952 -100 1126 -44 C 1300 12 1636 285 1636 467;M 1560 467 C 1560 647 1282 874 1111 930 C 940 986 613 942 507 796 C 401 650 414 293 520 147 C 626 1 923 -2 1094 54 C 1265 110 1560 287 1560 467"></animate>
</path></g>
</svg>